<?xml version="1.0" encoding="utf-8"?>
<!-- Generator: Adobe Illustrator 16.0.4, SVG Export Plug-In . SVG Version: 6.00 Build 0)  -->
<!DOCTYPE svg PUBLIC "-//W3C//DTD SVG 1.1//EN" "http://www.w3.org/Graphics/SVG/1.1/DTD/svg11.dtd">
<svg version="1.1" id="Layer_1" xmlns="http://www.w3.org/2000/svg" xmlns:xlink="http://www.w3.org/1999/xlink" x="0px" y="0px"
	 width="44.917px" height="38.666px" viewBox="0 0 44.917 38.666" enable-background="new 0 0 44.917 38.666" xml:space="preserve">
<g>
	<path fill="none" d="M6.001,5.958l0,23.855c0.001,0.009,32.875,0.022,32.875,0.022s-0.001-23.872,0-23.877H6.001z"/>
	<path fill="none" d="M2.123,2C2.071,2.073,2,36.189,2,36.189c0,0.238,0.071,0.404,0.123,0.477h40.67
		c0.052-0.073,0.123-0.238,0.123-0.477V2.476c0-0.238-0.071-0.403-0.123-0.476H2.123z M40.749,29.527
		c0,1.115-0.819,2.022-1.827,2.022H5.994c-1.007,0-1.826-0.907-1.826-2.022V6.186c0-1.115,0.819-2.021,1.826-2.021h32.929
		c1.007,0,1.827,0.907,1.827,2.021V29.527z"/>
	<path d="M42.891,0H2.026C0.89,0,0,1.087,0,2.476v33.713c0,1.389,0.89,2.477,2.026,2.477h40.865c1.136,0,2.026-1.088,2.026-2.477
		V2.476C44.917,1.087,44.027,0,42.891,0z M42.917,36.189c0,0.238-0.071,0.404-0.123,0.477H2.123C2.071,36.593,2,36.428,2,36.189
		C2,36.189,2.071,2.073,2.123,2h40.671c0.052,0.073,0.123,0.238,0.123,0.476V36.189z"/>
	<path d="M38.922,4.164H5.994c-1.007,0-1.826,0.907-1.826,2.021v23.341c0,1.115,0.819,2.022,1.826,2.022h32.929
		c1.007,0,1.827-0.907,1.827-2.022V6.186C40.749,5.071,39.93,4.164,38.922,4.164z M38.877,29.835c0,0-32.874-0.013-32.875-0.022
		l0-23.855h32.876C38.876,5.963,38.877,29.835,38.877,29.835z"/>
</g>
<g>
	<path d="M13.608,25.517v-14.35h3.295v0.99h-2.071v12.37h2.071v0.99H13.608z"/>
	<path d="M18.18,22.563c0-0.666,0.45-1.134,1.081-1.134s1.062,0.468,1.062,1.134c0,0.648-0.415,1.135-1.081,1.135
		C18.612,23.698,18.18,23.212,18.18,22.563z"/>
	<path d="M21.906,22.563c0-0.666,0.45-1.134,1.08-1.134s1.062,0.468,1.062,1.134c0,0.648-0.414,1.135-1.081,1.135
		C22.338,23.698,21.906,23.212,21.906,22.563z"/>
	<path d="M25.632,22.563c0-0.666,0.45-1.134,1.08-1.134s1.062,0.468,1.062,1.134c0,0.648-0.414,1.135-1.081,1.135
		C26.063,23.698,25.632,23.212,25.632,22.563z"/>
	<path d="M32.058,11.148v14.368h-3.295v-0.99h2.07V12.139h-2.07v-0.99H32.058z"/>
</g>
</svg>
